<svg width="120" height="120" viewBox="0 0 120 120" fill="none" xmlns="http://www.w3.org/2000/svg">
<circle cx="60" cy="60" r="58" stroke="#FCA311" stroke-width="4"/>
<circle cx="60" cy="60" r="39.5" fill="#FCA311" stroke="#FCA311"/>
<path d="M45.3477 55.4688H46.4434L49.2383 62.4238L52.0273 55.4688H53.1289L49.6602 64H48.8047L45.3477 55.4688ZM44.9902 55.4688H45.957L46.1152 60.6719V64H44.9902V55.4688ZM52.5137 55.4688H53.4805V64H52.3555V60.6719L52.5137 55.4688ZM57.9336 64.1172C57.4922 64.1172 57.0918 64.043 56.7324 63.8945C56.377 63.7422 56.0703 63.5293 55.8125 63.2559C55.5586 62.9824 55.3633 62.6582 55.2266 62.2832C55.0898 61.9082 55.0215 61.498 55.0215 61.0527V60.8066C55.0215 60.291 55.0977 59.832 55.25 59.4297C55.4023 59.0234 55.6094 58.6797 55.8711 58.3984C56.1328 58.1172 56.4297 57.9043 56.7617 57.7598C57.0938 57.6152 57.4375 57.543 57.793 57.543C58.2461 57.543 58.6367 57.6211 58.9648 57.7773C59.2969 57.9336 59.5684 58.1523 59.7793 58.4336C59.9902 58.7109 60.1465 59.0391 60.248 59.418C60.3496 59.793 60.4004 60.2031 60.4004 60.6484V61.1348H55.666V60.25H59.3164V60.168C59.3008 59.8867 59.2422 59.6133 59.1406 59.3477C59.043 59.082 58.8867 58.8633 58.6719 58.6914C58.457 58.5195 58.1641 58.4336 57.793 58.4336C57.5469 58.4336 57.3203 58.4863 57.1133 58.5918C56.9062 58.6934 56.7285 58.8457 56.5801 59.0488C56.4316 59.252 56.3164 59.5 56.2344 59.793C56.1523 60.0859 56.1113 60.4238 56.1113 60.8066V61.0527C56.1113 61.3535 56.1523 61.6367 56.2344 61.9023C56.3203 62.1641 56.4434 62.3945 56.6035 62.5938C56.7676 62.793 56.9648 62.9492 57.1953 63.0625C57.4297 63.1758 57.6953 63.2324 57.9922 63.2324C58.375 63.2324 58.6992 63.1543 58.9648 62.998C59.2305 62.8418 59.4629 62.6328 59.6621 62.3711L60.3184 62.8926C60.1816 63.0996 60.0078 63.2969 59.7969 63.4844C59.5859 63.6719 59.3262 63.8242 59.0176 63.9414C58.7129 64.0586 58.3516 64.1172 57.9336 64.1172ZM62.75 59.0137V64H61.666V57.6602H62.6914L62.75 59.0137ZM62.4922 60.5898L62.041 60.5723C62.0449 60.1387 62.1094 59.7383 62.2344 59.3711C62.3594 59 62.5352 58.6777 62.7617 58.4043C62.9883 58.1309 63.2578 57.9199 63.5703 57.7715C63.8867 57.6191 64.2363 57.543 64.6191 57.543C64.9316 57.543 65.2129 57.5859 65.4629 57.6719C65.7129 57.7539 65.9258 57.8867 66.1016 58.0703C66.2812 58.2539 66.418 58.4922 66.5117 58.7852C66.6055 59.0742 66.6523 59.4277 66.6523 59.8457V64H65.5625V59.834C65.5625 59.502 65.5137 59.2363 65.416 59.0371C65.3184 58.834 65.1758 58.6875 64.9883 58.5977C64.8008 58.5039 64.5703 58.457 64.2969 58.457C64.0273 58.457 63.7812 58.5137 63.5586 58.627C63.3398 58.7402 63.1504 58.8965 62.9902 59.0957C62.834 59.2949 62.7109 59.5234 62.6211 59.7812C62.5352 60.0352 62.4922 60.3047 62.4922 60.5898ZM72.1777 62.5352V57.6602H73.2676V64H72.2305L72.1777 62.5352ZM72.3828 61.1992L72.834 61.1875C72.834 61.6094 72.7891 62 72.6992 62.3594C72.6133 62.7148 72.4727 63.0234 72.2773 63.2852C72.082 63.5469 71.8262 63.752 71.5098 63.9004C71.1934 64.0449 70.8086 64.1172 70.3555 64.1172C70.0469 64.1172 69.7637 64.0723 69.5059 63.9824C69.252 63.8926 69.0332 63.7539 68.8496 63.5664C68.666 63.3789 68.5234 63.1348 68.4219 62.834C68.3242 62.5332 68.2754 62.1719 68.2754 61.75V57.6602H69.3594V61.7617C69.3594 62.0469 69.3906 62.2832 69.4531 62.4707C69.5195 62.6543 69.6074 62.8008 69.7168 62.9102C69.8301 63.0156 69.9551 63.0898 70.0918 63.1328C70.2324 63.1758 70.377 63.1973 70.5254 63.1973C70.9863 63.1973 71.3516 63.1094 71.6211 62.9336C71.8906 62.7539 72.084 62.5137 72.2012 62.2129C72.3223 61.9082 72.3828 61.5703 72.3828 61.1992Z" fill="#1E1E1E"/>
</svg>
